<?xml version="1.0" encoding="UTF-8"?>
<svg version="1.1" xmlns="http://www.w3.org/2000/svg" width="600" height="360">

<path d="M0 0 C10.54544785 -0.09326827 21.09079526 -0.16405035 31.63657379 -0.20724869 C36.53504658 -0.2279967 41.43323422 -0.25607634 46.33154297 -0.30175781 C51.07134241 -0.34567718 55.81087009 -0.36923284 60.55085754 -0.37950897 C62.34630096 -0.38681862 64.14173193 -0.40108866 65.9370575 -0.42292023 C91.03214098 -0.71554695 111.78530973 6.31583469 130 24 C142.80801676 36.76177843 151.10879208 53.84826642 151.32983398 72.08886719 C151.1806707 93.37509836 146.65944112 111.22971308 133 128 C132.53207031 128.63035156 132.06414062 129.26070312 131.58203125 129.91015625 C121.48637366 142.90720518 103.67069659 151.99774829 87.57324219 154.54150391 C82.00580722 155.20573984 76.442922 155.12402036 70.84375 155.09765625 C69.70087524 155.0962413 68.55800049 155.09482635 67.38049316 155.09336853 C63.75363475 155.08780025 60.12683955 155.07525362 56.5 155.0625 C54.0312509 155.0574809 51.56250082 155.05291871 49.09375 155.04882812 C43.06247867 155.03784121 37.03124385 155.02113485 31 155 C13.49174256 118.10813878 13.49174256 118.10813878 8.34448242 106.4284668 C6.09211927 101.34299754 3.7264935 96.32057773 1.31640625 91.30859375 C0.33028219 89.24462671 -0.65486339 87.18019506 -1.63980103 85.11566162 C-2.29119606 83.75814978 -2.94751406 82.4029881 -3.60897827 81.050354 C-4.53551069 79.1551165 -5.44492388 77.25247257 -6.3515625 75.34765625 C-6.88604004 74.24429932 -7.42051758 73.14094238 -7.97119141 72.00415039 C-9.60592335 67.23068657 -8.16059232 64.00511638 -6.15234375 59.57421875 C-5.79462891 58.77822266 -5.43691406 57.98222656 -5.06835938 57.16210938 C-4.50858398 55.93717773 -4.50858398 55.93717773 -3.9375 54.6875 C-3.56044922 53.85154297 -3.18339844 53.01558594 -2.79492188 52.15429688 C-1.86788193 50.10072738 -0.93613122 48.04943713 0 46 C0.66 46 1.32 46 2 46 C9.35964113 61.21300239 16.58832502 76.47851733 23.67578125 91.8203125 C25.66998986 96.13664249 27.67526436 100.447258 29.69831848 104.75013733 C30.89007197 107.28505158 32.07827435 109.82162396 33.26638794 112.35824585 C34.09929607 114.13273834 34.93714384 115.90490966 35.77514648 117.67700195 C36.28505127 118.767146 36.79495605 119.85729004 37.3203125 120.98046875 C37.76648926 121.92817139 38.21266602 122.87587402 38.67236328 123.85229492 C40.35029882 127.83052643 41.68529696 131.88981299 43 136 C48.56506428 135.98034636 54.12859817 135.92793299 59.69311523 135.84741211 C61.57909773 135.82446516 63.46520414 135.80989217 65.35131836 135.80444336 C82.46851761 135.74530874 95.82226028 133.3550727 110 123 C111.051875 122.2575 112.10375 121.515 113.1875 120.75 C122.90027775 111.25306176 130.75939593 97.80193339 131.16796875 83.9609375 C131.35740834 65.65509119 128.49698096 50.82276599 115.328125 37.18359375 C97.61661054 20.57161962 79.96263414 19.38883761 56.625 19.25 C54.23174966 19.22179453 51.83851904 19.19186084 49.4453125 19.16015625 C43.63028565 19.08683923 37.81537788 19.03487859 32 19 C32.38631592 19.87285645 32.77263184 20.74571289 33.1706543 21.64501953 C42.20267101 42.05846311 51.18704468 62.49085563 60 83 C60.26742004 83.62205322 60.53484009 84.24410645 60.81036377 84.88500977 C62.65176303 89.1702185 64.48429377 93.45914153 66.3125 97.75 C67.0245459 99.41192383 67.0245459 99.41192383 67.75097656 101.10742188 C68.17991211 102.11869141 68.60884766 103.12996094 69.05078125 104.171875 C69.42887939 105.0597168 69.80697754 105.94755859 70.1965332 106.86230469 C71 109 71 109 71 111 C64.07 111 57.14 111 50 111 C41.03499822 91.62204083 32.08375818 72.23904246 23.27154541 52.79104614 C18.3140194 41.85292563 13.28846122 30.94803449 8.2097168 20.06567383 C6.00226885 15.33266154 3.79730653 10.59836805 1.63671875 5.84375 C1.31791748 5.14443359 0.99911621 4.44511719 0.6706543 3.72460938 C0 2 0 2 0 0 Z " fill="#FAFBFB" transform="translate(271,91)"/>
<path d="M0 0 C2.94871952 2.94871952 4.3466354 6.51103555 6.125 10.25 C6.49753906 11.00152344 6.87007813 11.75304687 7.25390625 12.52734375 C7.78177734 13.63529297 7.78177734 13.63529297 8.3203125 14.765625 C8.64273926 15.43368164 8.96516602 16.10173828 9.29736328 16.79003906 C11.30047555 23.09030739 9.18318654 27.53753161 6.4140625 33.125 C6.04106018 33.90152924 5.66805786 34.67805847 5.28375244 35.4781189 C4.07450876 37.99055697 2.84975544 40.49509276 1.625 43 C0.3816279 45.57511591 -0.85763556 48.15218299 -2.09677124 50.7293396 C-2.91591261 52.4321605 -3.7364029 54.13433318 -4.55825806 55.83584595 C-9.21326772 65.48035061 -13.61116311 75.23129853 -18 85 C-11.4 85.33 -4.8 85.66 2 86 C3.32 88.578125 4.64 91.15625 6 93.8125 C6.62648438 95.02450073 6.62648438 95.02450073 7.265625 96.26098633 C7.59046875 96.90318115 7.9153125 97.54537598 8.25 98.20703125 C8.58515625 98.8616333 8.9203125 99.51623535 9.265625 100.19067383 C10 102 10 102 10 105 C-9.14 105 -28.28 105 -48 105 C-47.08059358 100.40296792 -45.65215108 96.77955296 -43.640625 92.62109375 C-43.12999763 91.54788879 -43.12999763 91.54788879 -42.60905457 90.45300293 C-41.87638592 88.91460476 -41.14120964 87.37739883 -40.40377808 85.84127808 C-38.83820373 82.57956479 -37.2852459 79.31189783 -35.73143005 76.04457092 C-34.94296853 74.38699297 -34.15387322 72.72971634 -33.364151 71.07273865 C-30.01568543 64.04582764 -26.7117696 56.99934264 -23.4375 49.9375 C-22.68243164 48.31062256 -22.68243164 48.31062256 -21.91210938 46.65087891 C-18.8103472 39.9521234 -15.73728251 33.24066511 -12.67578125 26.5234375 C-12.30782944 25.71654984 -11.93987762 24.90966217 -11.56077576 24.07832336 C-9.74212979 20.089468 -7.926184 16.09942258 -6.11499023 12.10717773 C-5.45693286 10.66126628 -4.79881422 9.2153827 -4.140625 7.76953125 C-3.83711624 7.09808075 -3.53360748 6.42663025 -3.22090149 5.73483276 C-1.11331596 1.11331596 -1.11331596 1.11331596 0 0 Z " fill="#F9FAFA" transform="translate(251,91)"/>
<path d="M0 0 C23.1 0 46.2 0 70 0 C77 14 77 14 78 19 C56.22 19.33 34.44 19.66 12 20 C9.36 25.94 6.72 31.88 4 38 C3 39 3 39 0.95874023 39.11352539 C-0.35308228 39.10567017 -0.35308228 39.10567017 -1.69140625 39.09765625 C-2.63564453 39.09443359 -3.57988281 39.09121094 -4.55273438 39.08789062 C-5.54595703 39.07951172 -6.53917969 39.07113281 -7.5625 39.0625 C-8.55958984 39.05798828 -9.55667969 39.05347656 -10.58398438 39.04882812 C-13.05604849 39.03700007 -15.52799518 39.02051849 -18 39 C-13.52374944 27.69746734 -8.56594207 16.80518754 -3 6 C-2.01 4.02 -1.02 2.04 0 0 Z " fill="#FAFBFB" transform="translate(197,207)"/>
<path d="M0 0 C0.66 0 1.32 0 2 0 C1.45276317 3.37462715 0.9451 5.08235 -1 8 C-0.01 8.33 0.98 8.66 2 9 C0.02 9.33 -1.96 9.66 -4 10 C-2.68 6.7 -1.36 3.4 0 0 Z " fill="#24333C" transform="translate(236,167)"/>
<path d="M0 0 C1.73543126 2.60314689 2.61121812 3.98694043 3 7 C2.34 7.66 1.68 8.32 1 9 C0.34 8.34 -0.32 7.68 -1 7 C-0.625 3.375 -0.625 3.375 0 0 Z " fill="#23343E" transform="translate(307,171)"/>
</svg>
